<svg width="13" height="7" viewBox="0 0 13 7" fill="none" xmlns="http://www.w3.org/2000/svg">
    <path
        d="M6.49999 6.94972C6.36665 6.94972 6.24165 6.92888 6.12499 6.88722C6.00832 6.84555 5.89999 6.77472 5.79999 6.67472L1.19999 2.07472C1.01665 1.89139 0.920821 1.66222 0.912487 1.38722C0.904154 1.11222 0.999987 0.874719 1.19999 0.674719C1.38332 0.491385 1.61665 0.399719 1.89999 0.399719C2.18332 0.399719 2.41665 0.491385 2.59999 0.674719L6.49999 4.54972L10.4 0.674719C10.5833 0.491385 10.8125 0.395552 11.0875 0.387219C11.3625 0.378885 11.6 0.474719 11.8 0.674719C11.9833 0.858052 12.075 1.09139 12.075 1.37472C12.075 1.65805 11.9833 1.89139 11.8 2.07472L7.19999 6.67472C7.09999 6.77472 6.99165 6.84555 6.87499 6.88722C6.75832 6.92888 6.63332 6.94972 6.49999 6.94972Z"
        fill="#F1E9FF" />
</svg>